<?xml version="1.0" standalone="no"?>
<svg xmlns="http://www.w3.org/2000/svg" viewBox="0 0 261.22816061185466 98.86816061185469" width="261.22816061185466" height="98.86816061185469"><rect fill="#0466b2" width="261.22816061185466" height="98.86816061185469" x="0" y="0"></rect><g fill="white" color="white" transform="translate(174.36 12) scale(2.4956054)"><svg width="30.0" height="30.0" x="0.0" y="0.0" viewBox="0 0 30 30"><title></title><desc></desc><g stroke="none" stroke-width="1" fill="none" fill-rule="evenodd"><g transform="translate(-360.000000, -45.000000)" fill="currentColor"><path d="M367.667588,65.4121402 C367.234653,65.5313775 366.711699,65.317179 366.488782,64.9142751 L364.730241,61.7358516 C364.598771,61.4982284 364.669935,61.1791185 364.894149,61.0195722 L366.174963,60.1081685 C366.396957,59.9502015 366.723681,59.9764475 366.911298,60.1737049 L368.335857,61.671468 C368.39738,61.7361522 368.511708,61.7627561 368.601138,61.726913 L376.069869,58.7334817 L372.150771,53.9364251 C371.90041,53.6299777 372.018151,53.1753015 372.398337,53.0393731 L374.161585,52.4089573 C374.470102,52.2986528 374.878069,52.3574751 375.143879,52.5515781 L380.93775,56.7824584 L383.407352,55.7926535 C384.975947,55.1639683 387.074257,55.7817119 388.345844,56.8967154 C389.617431,58.011719 389.238473,59.4711735 388.098942,59.7850186 L367.667588,65.4121402 Z"></path><path d="M383.434131,62.107016 C383.852423,62.5917262 384.21738,63.261582 384.422584,63.6881209 C382.866515,68.5110838 378.340698,72 373,72 C366.372583,72 361,66.627417 361,60 C361,58.4181341 361.306079,56.9077569 361.862244,55.5248616 C361.885654,56.9317018 362.266732,58.5257001 362.857078,60.1690413 C363.005425,60.5819916 363.263997,60.9356031 363.673563,61.3067477 C363.71217,60.9511488 363.871395,60.6103834 364.13571,60.3536401 C363.969048,60.1716811 363.859378,60.0012737 363.798195,59.8309589 C362.895353,57.3177255 362.524011,54.8840792 363.259912,53.3884704 C363.668649,52.5577727 366.169789,51.2355973 368.777876,50.5187093 C371.572256,49.7506146 373.569334,49.9010953 373.818424,50.871832 C373.864486,51.0513381 373.859472,51.2527392 373.804258,51.4747202 L373.824924,51.4673312 C374.14381,51.3533195 374.498057,51.3267276 374.83944,51.3805801 C374.867074,51.1219748 374.85032,50.8698777 374.787044,50.6232852 C374.327421,48.8320708 371.826544,48.6436288 368.512835,49.5544722 C367.437577,49.8500296 366.386675,50.2348442 365.462197,50.6623729 C367.522362,48.9972191 370.144725,48 373,48 C376.488995,48 379.630215,49.489002 381.822863,51.8662086 C380.877254,53.1586759 380.306641,53.2908913 379.176964,53.2755685 C378.628414,53.268128 378.2898,53.2768415 377.970423,53.3809665 L379.193179,54.2758279 C380.524875,54.2890881 381.513146,53.9724734 382.500343,52.6680552 C382.976357,53.2839426 383.393813,53.9473905 383.744369,54.6500558 C384.086687,54.5772266 384.441907,54.5423679 384.802522,54.5427313 C382.739852,50.0892315 378.23069,47 373,47 C365.820298,47 360,52.8202983 360,60 C360,67.1797017 365.820298,73 373,73 C379.69934,73 385.215095,67.9324682 385.923175,61.4214935 L384.879229,61.7090129 C384.85325,61.8912109 384.823179,62.0720899 384.789111,62.251554 C384.702454,62.1047904 384.608502,61.9564559 384.50706,61.8115142 L383.434131,62.107016 Z M381.649384,62.5985638 C381.445856,63.0020078 381.273642,63.3918925 381.213087,63.515359 C380.80542,64.3465574 379.815979,67.3878782 378.350632,67.6496404 C376.635096,67.956095 376.845944,66.1709091 376.865884,65.2616246 C376.869538,65.0950122 376.926391,64.5037845 376.845795,63.921549 L377.821556,63.652809 C377.943861,64.4037217 377.869208,65.1210244 377.865644,65.283549 C377.848491,66.0657197 377.777837,66.7585501 378.115189,66.6777522 C379.049499,66.4539792 380.230347,63.2666332 380.297022,63.1143287 C380.311688,63.080828 380.334473,63.025144 380.364725,62.9523794 L381.649384,62.5985638 Z M371.996965,55.3287406 C371.489819,55.7746931 370.915458,56.2433469 370.255477,56.7555013 C369.646638,57.2279683 367.639416,58.7250599 367.312255,58.978468 C367.245692,59.0300252 367.181575,59.0802254 367.119942,59.128992 C366.629496,58.9228062 366.045538,58.9729313 365.595185,59.2933942 L365.207111,59.5695405 C365.427448,59.2207675 365.890966,58.8144578 366.699898,58.1878869 C367.036773,57.9269551 369.043511,56.4302241 369.642405,55.9654741 C370.299436,55.4556087 370.86727,54.9917493 371.363923,54.5536979 C371.36803,54.558849 371.372175,54.5639848 371.376358,54.569105 L371.996965,55.3287406 Z M371.882786,65.2884411 C371.873403,65.3011146 371.863887,65.3138507 371.854237,65.326651 C371.709461,65.5186979 370.895896,66.4760271 370.664725,66.7766191 C369.912907,67.7542081 369.452746,68.6762605 369.280063,69.7525476 C369.200173,70.2504818 368.516986,70.3304155 368.32431,69.8643719 C367.879219,68.7877924 367.534506,67.6981218 367.211075,66.434414 C367.45132,66.4591208 367.696278,66.4414723 367.933117,66.376243 L368.210875,66.2997442 C368.41228,67.0475671 368.721393,68.0583119 368.721393,68.0583119 C368.721393,68.0583119 369.027182,67.2655572 369.872033,66.1669971 C369.946519,66.0701427 370.069662,65.9187528 370.209358,65.7493299 L371.882786,65.2884411 Z"></path></g></g></svg></g><path fill="white" fill-rule="nonzero" d="M10.52 0.28Q15.20 0.28 17.40 2.46Q19.60 4.64 19.60 8.04L19.60 8.04Q19.60 10.44 18.56 12.54Q17.52 14.64 15.46 15.96Q13.40 17.28 10.52 17.28L10.52 17.28Q8.84 17.28 7.72 16.84L7.72 16.84Q7.64 16.36 7.64 16.08L7.64 16.08Q7.64 15.60 7.76 15.20L7.76 15.20Q8.76 15.44 9.88 15.44L9.88 15.44Q15.52 15.44 15.52 9.20L15.52 9.20Q15.52 5.84 13.88 3.94Q12.24 2.04 8.76 2.04L8.76 2.04Q7.88 2.04 6.72 2.28L6.72 2.28L6.72 21.52Q6.72 23.24 7.08 24.14Q7.44 25.04 8.18 25.38Q8.92 25.72 10.28 25.80L10.28 25.80Q10.48 26.36 10.48 27.52L10.48 27.52Q8.64 27.40 5.44 27.40L5.44 27.40Q1.56 27.40 0 27.52L0 27.52Q0 26.36 0.20 25.80L0.20 25.80Q1.80 25.72 2.38 25.02Q2.96 24.32 2.96 22.32L2.96 22.32L2.96 5.44Q2.96 3.44 2.38 2.74Q1.80 2.04 0.20 1.96L0.20 1.96Q0 1.40 0 0.24L0 0.24Q2.08 0.36 5.44 0.36L5.44 0.36L10.52 0.28ZM45.92 25.80Q46.16 26.60 46.16 27.52L46.16 27.52Q43.76 27.40 41.60 27.40L41.60 27.40Q39.48 27.40 37.08 27.52L37.08 27.52Q37.08 26.36 37.36 25.80L37.36 25.80Q38.48 25.68 38.94 25.44Q39.40 25.20 39.40 24.64L39.40 24.64Q39.40 24.16 38.80 22.68L38.80 22.68L37.04 18.60Q30.68 18.60 26.48 18.76L26.48 18.76L25.40 21.52Q24.76 23.20 24.76 24.16L24.76 24.16Q24.76 24.96 25.26 25.34Q25.76 25.72 26.84 25.80L26.84 25.80Q27.12 26.48 27.12 27.52L27.12 27.52Q25.76 27.40 23.32 27.40L23.32 27.40Q22.28 27.40 20 27.52L20 27.52Q20 26.52 20.28 25.84L20.28 25.84Q21.32 25.64 21.92 24.80Q22.52 23.96 23.48 21.52L23.48 21.52L31.76 0.28Q32.44 0.12 33.32 0.12L33.32 0.12L42.84 21.96Q43.84 24.20 44.42 24.92Q45 25.64 45.92 25.80L45.92 25.80ZM27.20 16.80L36.28 16.80L33.24 9.68Q32.04 6.92 31.48 5.32L31.48 5.32Q31.04 6.68 29.96 9.64L29.96 9.64L27.20 16.80ZM60.48 27.76Q56.80 27.76 53.90 25.98Q51 24.20 49.38 21Q47.76 17.80 47.76 13.68L47.76 13.68Q47.76 9.28 49.62 6.20Q51.48 3.12 54.54 1.56Q57.60 0 61.12 0L61.12 0Q63.56 0 65.64 0.50Q67.72 1 70 2.08L70 2.08Q69.56 4.16 69.56 8.28L69.56 8.28Q68.68 8.64 67.44 8.64L67.44 8.64Q67.28 4.64 65.80 3.14Q64.32 1.64 61.44 1.64L61.44 1.64Q58.20 1.64 56.08 3.16Q53.96 4.68 52.96 7.16Q51.96 9.64 51.96 12.60L51.96 12.60Q51.96 16.20 53.18 19.10Q54.40 22 56.72 23.66Q59.04 25.32 62.16 25.32L62.16 25.32Q64.04 25.32 66.04 24.68Q68.04 24.04 69.76 22.96L69.76 22.96Q70 23.16 70.22 23.54Q70.44 23.92 70.48 24.20L70.48 24.20Q68.04 26.08 65.74 26.92Q63.44 27.76 60.48 27.76L60.48 27.76ZM77.68 5.44Q77.68 3.44 77.10 2.74Q76.52 2.04 74.92 1.96L74.92 1.96Q74.72 1.40 74.72 0.24L74.72 0.24Q76.92 0.36 79.56 0.36L79.56 0.36Q82 0.36 84.40 0.24L84.40 0.24Q84.40 1.40 84.20 1.96L84.20 1.96Q82.60 2.04 82.02 2.74Q81.44 3.44 81.44 5.44L81.44 5.44L81.44 22.32Q81.44 24.32 82.02 25.02Q82.60 25.72 84.20 25.80L84.20 25.80Q84.40 26.36 84.40 27.52L84.40 27.52Q82 27.40 79.56 27.40L79.56 27.40Q76.76 27.40 74.72 27.52L74.72 27.52Q74.72 26.36 74.92 25.80L74.92 25.80Q76.52 25.72 77.10 25.02Q77.68 24.32 77.68 22.32L77.68 22.32L77.68 5.44ZM99.16 1.96L95.60 1.96L95.60 13.72L98.36 13.72Q100.88 13.72 101.82 13.06Q102.76 12.40 102.80 10.48L102.80 10.48Q103.76 10.20 104.72 10.20L104.72 10.20Q104.64 11.56 104.64 14.56L104.64 14.56Q104.64 17.84 104.72 19.20L104.72 19.20Q103.64 19.20 102.88 19L102.88 19Q102.72 16.92 101.78 16.18Q100.84 15.44 98.36 15.44L98.36 15.44L95.60 15.44L95.60 21.52Q95.60 23.24 95.96 24.14Q96.32 25.04 97.06 25.38Q97.80 25.72 99.16 25.80L99.16 25.80Q99.36 26.36 99.36 27.52L99.36 27.52Q97.52 27.40 94.32 27.40L94.32 27.40Q90.44 27.40 88.88 27.52L88.88 27.52Q88.88 26.36 89.08 25.80L89.08 25.80Q90.68 25.72 91.26 25.02Q91.84 24.32 91.84 22.32L91.84 22.32L91.84 5.44Q91.84 3.44 91.26 2.74Q90.68 2.04 89.08 1.96L89.08 1.96Q88.88 1.40 88.88 0.24L88.88 0.24Q91.52 0.36 95.56 0.36L95.56 0.36Q102.72 0.36 106.68 0.24L106.68 0.24Q107.08 4.64 107.52 6.56L107.52 6.56Q106.92 7.04 105.72 7.04L105.72 7.04Q105.52 4.80 104.10 3.38Q102.68 1.96 99.16 1.96L99.16 1.96ZM114.28 5.44Q114.28 3.44 113.70 2.74Q113.12 2.04 111.52 1.96L111.52 1.96Q111.32 1.40 111.32 0.24L111.32 0.24Q113.52 0.36 116.16 0.36L116.16 0.36Q118.60 0.36 121 0.24L121 0.24Q121 1.40 120.80 1.96L120.80 1.96Q119.20 2.04 118.62 2.74Q118.04 3.44 118.04 5.44L118.04 5.44L118.04 22.32Q118.04 24.32 118.62 25.02Q119.20 25.72 120.80 25.80L120.80 25.80Q121 26.36 121 27.52L121 27.52Q118.60 27.40 116.16 27.40L116.16 27.40Q113.36 27.40 111.32 27.52L111.32 27.52Q111.32 26.36 111.52 25.80L111.52 25.80Q113.12 25.72 113.70 25.02Q114.28 24.32 114.28 22.32L114.28 22.32L114.28 5.44ZM137.36 27.76Q133.68 27.76 130.78 25.98Q127.88 24.20 126.26 21Q124.64 17.80 124.64 13.68L124.64 13.68Q124.64 9.28 126.50 6.20Q128.36 3.12 131.42 1.56Q134.48 0 138 0L138 0Q140.44 0 142.52 0.50Q144.60 1 146.88 2.08L146.88 2.08Q146.44 4.16 146.44 8.28L146.44 8.28Q145.56 8.64 144.32 8.64L144.32 8.64Q144.16 4.64 142.68 3.14Q141.20 1.64 138.32 1.64L138.32 1.64Q135.08 1.64 132.96 3.16Q130.84 4.68 129.84 7.16Q128.84 9.64 128.84 12.60L128.84 12.60Q128.84 16.20 130.06 19.10Q131.28 22 133.60 23.66Q135.92 25.32 139.04 25.32L139.04 25.32Q140.92 25.32 142.92 24.68Q144.92 24.04 146.64 22.96L146.64 22.96Q146.88 23.16 147.10 23.54Q147.32 23.92 147.36 24.20L147.36 24.20Q144.92 26.08 142.62 26.92Q140.32 27.76 137.36 27.76L137.36 27.76Z" transform="translate(12 12) scale(1)"></path><path fill="white" fill-rule="nonzero" d="M21.12 0.24L21.08 1.68Q21.08 3.28 21.36 6.64L21.36 6.64Q20.52 7.04 19.36 7L19.36 7Q19.28 4.60 18.20 3.36Q17.12 2.12 14.84 2.12L14.84 2.12L12.72 2.12L12.72 22.32Q12.72 23.72 12.96 24.42Q13.20 25.12 13.86 25.42Q14.52 25.72 15.84 25.80L15.84 25.80Q16.04 26.36 16.04 27.52L16.04 27.52Q13.48 27.40 10.80 27.40L10.80 27.40Q7.80 27.40 5.56 27.52L5.56 27.52Q5.56 26.36 5.76 25.80L5.76 25.80Q7.08 25.72 7.76 25.42Q8.44 25.12 8.70 24.40Q8.96 23.68 8.96 22.32L8.96 22.32L8.96 2.12L6.92 2.12Q5.08 2.12 4.08 2.70Q3.08 3.28 2.66 4.26Q2.24 5.24 1.92 7L1.92 7Q0.60 7 0 6.64L0 6.64Q0.64 3.04 0.64 0.24L0.64 0.24Q2.88 0.36 10.84 0.36L10.84 0.36Q18.92 0.36 21.12 0.24L21.12 0.24ZM36.64 27.76Q32.76 27.76 29.76 25.94Q26.76 24.12 25.10 20.94Q23.44 17.76 23.44 13.80L23.44 13.80Q23.44 9.80 25.18 6.66Q26.92 3.52 29.94 1.76Q32.96 0 36.64 0L36.64 0Q40.44 0 43.46 1.74Q46.48 3.48 48.18 6.62Q49.88 9.76 49.88 13.80L49.88 13.80Q49.88 17.72 48.18 20.90Q46.48 24.08 43.46 25.92Q40.44 27.76 36.64 27.76L36.64 27.76ZM37.44 25.80Q39.96 25.80 41.86 24.36Q43.76 22.92 44.76 20.42Q45.76 17.92 45.76 14.84L45.76 14.84Q45.76 11.28 44.46 8.32Q43.16 5.36 40.88 3.64Q38.60 1.92 35.80 1.92L35.80 1.92Q33.44 1.92 31.56 3.28Q29.68 4.64 28.62 7.08Q27.56 9.52 27.56 12.72L27.56 12.72Q27.56 16.16 28.74 19.16Q29.92 22.16 32.16 23.98Q34.40 25.80 37.44 25.80L37.44 25.80ZM74.08 16.64Q74.08 20.24 73.60 22.20Q73.12 24.16 71.80 25.48L71.80 25.48Q69.52 27.76 65.32 27.76L65.32 27.76Q59.96 27.76 57.74 25.40Q55.52 23.04 55.52 18.16L55.52 18.16L55.52 5.44Q55.52 4 55.34 3.32Q55.16 2.64 54.68 2.36Q54.20 2.08 53.16 1.96L53.16 1.96Q52.96 1.24 52.96 0.24L52.96 0.24Q54.56 0.36 57.60 0.36L57.60 0.36Q60.44 0.36 62.24 0.24L62.24 0.24Q62.24 1.24 62.04 1.96L62.04 1.96Q60.76 2.08 60.22 2.34Q59.68 2.60 59.48 3.26Q59.28 3.92 59.28 5.44L59.28 5.44L59.28 17.60Q59.28 21.36 60.82 23.50Q62.36 25.64 66.08 25.64L66.08 25.64Q67.20 25.64 68.38 25.26Q69.56 24.88 70.32 24.12L70.32 24.12Q71.28 23.16 71.66 21.62Q72.04 20.08 72.04 16.96L72.04 16.96L72.04 7.04Q72.04 5 71.84 4Q71.64 3 71.06 2.54Q70.48 2.08 69.28 1.96L69.28 1.96Q69.08 0.96 69.08 0.24L69.08 0.24Q70.44 0.36 72.84 0.36L72.84 0.36Q75.08 0.36 76.64 0.24L76.64 0.24Q76.64 0.84 76.44 1.96L76.44 1.96Q75.48 2.08 74.98 2.52Q74.48 2.96 74.28 4.02Q74.08 5.08 74.08 7.04L74.08 7.04L74.08 16.64ZM99.20 21.80Q100.12 23.36 100.76 24.12Q101.40 24.88 102.26 25.24Q103.12 25.60 104.60 25.68L104.60 25.68Q104.60 26.84 104.44 27.40L104.44 27.40Q100.36 27.40 98.16 27.76L98.16 27.76Q96.64 25.32 95.48 23.04L95.48 23.04L95 22.16Q93.76 19.92 92.74 18.42Q91.72 16.92 90.04 15.12L90.04 15.12L88.80 15.16Q88.20 15.16 87.24 15.08L87.24 15.08L87.24 22.32Q87.24 24.32 87.78 25.02Q88.32 25.72 89.88 25.80L89.88 25.80Q90.08 26.40 90.08 27.52L90.08 27.52Q88.36 27.40 85.32 27.40L85.32 27.40Q82.32 27.40 80.52 27.52L80.52 27.52Q80.52 26.44 80.72 25.80L80.72 25.80Q82.36 25.72 82.92 25.02Q83.48 24.32 83.48 22.32L83.48 22.32L83.48 5.44Q83.48 3.44 82.90 2.70Q82.32 1.96 80.72 1.96L80.72 1.96Q80.52 1.32 80.52 0.28L80.52 0.28Q82.12 0.36 85.32 0.36L85.32 0.36Q87.52 0.36 88.64 0.32L88.64 0.32L92 0.28Q96.32 0.28 98.52 2.14Q100.72 4 100.72 7L100.72 7Q100.72 9.64 98.94 11.56Q97.16 13.48 94 14.28L94 14.28Q95.40 15.76 96.36 17.18Q97.32 18.60 99.20 21.80L99.20 21.80ZM87.24 13.24Q88.20 13.36 89 13.36L89 13.36Q92.48 13.36 94.64 11.86Q96.80 10.36 96.80 7.40L96.80 7.40Q96.80 4.88 95.22 3.46Q93.64 2.04 90.20 2.04L90.20 2.04Q88.76 2.04 87.24 2.36L87.24 2.36L87.24 13.24Z" transform="translate(12 47.761) scale(1.409)"></path></svg>